PathFileType  4	(X/Y/Z) C:\Users\antoi\Documents\MyRepositories\mobilecap\ResultsAnalysis
DataRate	CameraRate	NumFrames	NumMarkers	Units	OrigDataRate	OrigDataStartFrame	OrigNumFrames
100.0	100.0	6	51	mm	100.0	70	184
Frame#	Time	r_knee			r_shank_antsup			r_ankle			r_calc			r_5meta			r_toe			L_knee			L_shank_antsup			L_ankle			L_calc			L_5meta			L_toe			r_sh2			r_sh3			r_sh4			L_sh2			L_sh3			r_thigh1			r_thigh2			r_thigh3			r_thigh4			r_thigh5			L_thigh1			L_thigh2			L_thigh3			L_thigh4			r.ASIS			r.PSIS			L.ASIS			L.PSIS			C7			R_Shoulder			L_Shoulder			R_Sternum			L_Sternum			R_humerus			R_elbow_med			R_elbow_lat			R_forearm			R_wrist_radius			R_wrist_ulna			L_humerus			L_elbow_med			L_elbow_lat			L_forearm			L_wrist_radius			L_wrist_ulna			R_HJC			L_HJC			R_HJC_reg			L_HJC_reg			
		X1	Y1	Z1	X2	Y2	Z2	X3	Y3	Z3	X4	Y4	Z4	X5	Y5	Z5	X6	Y6	Z6	X7	Y7	Z7	X8	Y8	Z8	X9	Y9	Z9	X10	Y10	Z10	X11	Y11	Z11	X12	Y12	Z12	X13	Y13	Z13	X14	Y14	Z14	X15	Y15	Z15	X16	Y16	Z16	X17	Y17	Z17	X18	Y18	Z18	X19	Y19	Z19	X20	Y20	Z20	X21	Y21	Z21	X22	Y22	Z22	X23	Y23	Z23	X24	Y24	Z24	X25	Y25	Z25	X26	Y26	Z26	X27	Y27	Z27	X28	Y28	Z28	X29	Y29	Z29	X30	Y30	Z30	X31	Y31	Z31	X32	Y32	Z32	X33	Y33	Z33	X34	Y34	Z34	X35	Y35	Z35	X36	Y36	Z36	X37	Y37	Z37	X38	Y38	Z38	X39	Y39	Z39	X40	Y40	Z40	X41	Y41	Z41	X42	Y42	Z42	X43	Y43	Z43	X44	Y44	Z44	X45	Y45	Z45	X46	Y46	Z46	X47	Y47	Z47	X48	Y48	Z48	X49	Y49	Z49	X50	Y50	Z50	X51	Y51	Z51	

70	0.69000000	314.03869	590.93800	-90.93688	304.50131	438.29025	-109.83273	146.79352	106.71829	-141.65546	89.19355	87.54247	-205.62729	277.94910	41.06261	-111.18228	320.97173	61.66787	-161.37612	592.53003	609.23716	-380.93476	707.09339	448.69309	-366.26932	758.27341	136.49417	-358.31296	720.99078	90.84178	-289.91614	923.64952	110.46201	-387.44480	945.43025	166.79529	-339.05740	274.74607	330.86483	-126.70999	241.91871	445.92470	-64.15056	209.00718	338.12567	-73.81712	634.95909	427.23736	-412.23530	672.28602	315.49064	-394.38768	419.62776	866.67822	-43.15418	413.04807	755.46335	-54.98529	347.61763	737.62061	-44.91705	304.55517	878.56218	-55.79976	295.00714	760.69925	-59.79063	547.58843	903.67068	-388.58337	591.05673	776.43766	-385.01297	444.30196	873.55592	-400.98024	491.49637	743.10463	-403.04583	505.40814	1151.72448	-81.45801	314.43204	1184.41545	-164.03305	485.64169	1142.94852	-360.39848	307.99449	1182.01920	-256.58713	393.50578	1671.63833	-233.56308	453.70468	1618.90435	-58.49350	455.65613	1628.65665	-408.09315	524.22613	1570.38971	-200.71064	528.88840	1572.46739	-257.80256	388.04888	1365.47794	32.10990	274.68155	1268.16627	7.31007	293.86486	1294.49349	77.80645	393.19003	1102.84942	103.90022	431.37369	1015.44643	105.12532	403.13900	1011.64595	130.66482	433.91165	1333.99458	-466.59966	335.58012	1267.49441	-425.01911	360.02492	1261.02355	-497.48778	448.04174	1072.80037	-512.61652	479.41318	999.43857	-501.25467	454.53462	998.89662	-526.04914	423.47143	1056.97211	-115.39952	405.21377	1054.49567	-312.01312	430.96896	1067.05708	-114.46067	418.16094	1062.28974	-298.60595	
71	0.70000000	320.62870	590.69407	-90.84996	309.54741	438.01434	-109.86892	147.86119	108.32914	-141.76544	89.98472	89.79775	-205.76485	278.20092	41.10351	-111.29786	321.36488	61.41390	-161.42695	599.67600	606.42471	-379.95129	714.96292	446.55450	-365.22068	768.74143	134.40463	-356.76972	731.47373	88.61775	-288.54216	934.31433	110.11037	-385.24189	955.25563	166.84862	-336.94573	278.54710	330.95898	-126.75643	247.13707	446.38328	-64.20482	212.96020	339.04364	-73.92098	642.96097	424.52095	-411.15627	681.02007	313.07157	-393.20959	427.80881	865.92109	-42.77835	420.55790	754.80210	-54.58046	354.85289	737.36456	-44.69708	312.95122	878.50275	-55.78807	302.35711	760.79349	-59.71554	557.15454	901.21039	-387.61967	599.50207	773.59616	-384.12192	453.73999	871.98079	-400.20427	499.69033	741.23328	-402.42491	515.19620	1150.85431	-80.71921	324.71679	1183.56318	-164.41652	497.09896	1141.18835	-359.92725	318.81430	1181.03015	-256.95937	404.55072	1670.37339	-237.41215	463.84501	1619.08200	-61.54633	467.38624	1625.79553	-411.24645	534.97267	1569.31272	-203.00755	539.81695	1570.82347	-260.18897	396.78531	1366.52105	30.56640	282.79529	1269.82933	6.15137	302.14372	1296.36893	76.45083	398.72900	1103.61759	103.95999	435.69759	1015.59101	105.50161	407.63107	1012.42897	131.28956	446.04148	1330.68540	-467.61876	347.88512	1264.24945	-425.67442	372.31169	1257.37441	-498.14391	459.84131	1069.01587	-512.65441	491.26041	995.60923	-501.02629	466.18339	994.98994	-525.79045	433.30804	1056.11947	-114.85183	416.12421	1053.08443	-311.55469	440.88995	1065.90617	-114.04257	429.13313	1060.86108	-298.37235	
72	0.71000000	327.55697	590.54681	-90.72174	314.75732	437.80341	-109.85969	148.98374	110.03647	-141.87630	90.86265	92.28287	-205.86969	278.45515	41.15539	-111.38445	321.79982	61.15494	-161.44786	606.96933	603.70036	-378.99872	722.52997	444.13116	-364.16767	777.78577	131.93254	-355.23201	740.49531	85.98186	-287.19116	943.55714	109.00630	-383.14520	963.76814	166.06068	-334.86289	282.47814	331.13499	-126.74896	252.52249	446.92509	-64.23960	217.02464	340.10438	-74.05652	650.59269	421.75012	-410.09964	689.00736	310.48685	-392.01343	436.18372	865.20640	-42.34945	428.26165	754.18717	-54.12995	362.28798	737.15523	-44.43731	321.51168	878.48461	-55.73471	310.02197	760.87029	-59.63784	566.87208	898.84956	-386.68855	608.10943	770.85857	-383.24100	463.34784	870.50226	-399.47507	508.09968	739.44969	-401.85921	525.14837	1150.05879	-80.01373	335.14209	1182.74128	-164.81199	508.69859	1139.47925	-359.49833	329.74580	1180.07952	-257.33832	415.77125	1669.12591	-241.36886	474.07477	1619.37513	-64.71652	479.31190	1622.92404	-414.48105	545.90565	1568.29872	-205.37242	550.80149	1569.13930	-262.67146	405.61972	1367.69514	28.92067	290.97642	1271.67927	4.89443	310.49922	1298.42225	74.98734	404.32642	1104.56754	103.93649	439.99846	1015.91025	105.90267	412.06005	1013.40597	131.86077	458.24657	1327.38818	-468.69599	360.29326	1261.04360	-426.36635	384.70067	1253.75038	-498.85224	471.68051	1065.24521	-512.72396	503.21736	991.78680	-500.80780	477.84999	991.11006	-525.55451	443.31439	1055.32478	-114.33186	427.17868	1051.72002	-311.11432	451.01055	1064.78534	-113.64513	440.24892	1059.47719	-298.16675	
73	0.72000000	334.81140	590.47446	-90.56061	320.16702	437.66319	-109.80410	150.15966	111.82614	-142.00510	91.83973	94.99880	-205.93829	278.71578	41.21872	-111.44299	322.28414	60.89058	-161.43365	614.44209	601.07668	-378.05189	729.81229	441.40810	-363.06549	785.29236	129.07305	-353.68210	747.98702	82.93123	-285.80466	951.25823	107.08967	-381.19725	970.91265	164.36261	-332.88469	286.56634	331.39910	-126.68701	258.10010	447.55137	-64.25979	221.21032	341.31472	-74.23168	657.89962	418.93728	-409.05765	696.24803	307.72015	-390.78837	444.75528	864.53338	-41.87004	436.18936	753.60895	-53.63766	369.97857	736.97167	-44.16411	330.24591	878.49345	-55.65049	318.01475	760.92487	-59.58208	576.76824	896.60976	-385.79002	616.91193	768.25410	-382.34925	473.14546	869.13703	-398.78630	516.75124	737.75629	-401.31136	535.26332	1149.34249	-79.35032	345.72911	1181.95054	-165.22159	520.41311	1137.80816	-359.12882	340.80132	1179.16300	-257.72620	427.14400	1667.89832	-245.42984	484.39644	1619.78121	-68.00181	491.43082	1620.04220	-417.79196	557.05116	1567.35517	-207.80931	561.85409	1567.42552	-265.24715	414.52585	1369.00405	27.17159	299.20569	1273.72638	3.53363	318.91174	1300.66574	73.41316	409.97346	1105.72855	103.82657	444.28350	1016.44170	106.29676	416.44389	1014.61421	132.36912	470.54259	1324.10445	-469.83319	372.79007	1257.87918	-427.10740	397.17407	1250.16468	-499.61229	483.56204	1061.49120	-512.82073	515.24169	987.96742	-500.60207	489.52092	987.27165	-525.33646	453.49571	1054.59071	-113.84144	438.36556	1050.39314	-310.69239	461.33008	1063.69441	-113.26681	451.48973	1058.12763	-297.99329	
74	0.73000000	342.35298	590.44490	-90.37586	325.81273	437.59874	-109.70030	151.39986	113.69798	-142.15733	92.93041	97.95186	-205.96541	278.99021	41.29240	-111.47585	322.82400	60.61704	-161.38013	622.08905	598.55677	-377.08760	736.80537	438.39294	-361.88690	791.25802	125.85359	-352.10434	753.95790	79.54361	-284.32642	957.38776	104.34181	-379.42138	976.71642	161.72578	-331.06225	290.83488	331.75607	-126.56902	263.89251	448.26611	-64.26794	225.53691	342.67616	-74.43254	664.89407	416.09285	-408.01512	702.74700	304.77359	-389.52572	453.51957	863.90713	-41.34671	444.36567	753.06366	-53.10722	377.95021	736.80478	-43.89585	339.16891	878.51838	-55.55890	326.32342	760.97045	-59.57043	586.86147	894.50279	-384.91790	625.92761	765.80041	-381.42823	483.13908	867.89654	-398.12996	525.64933	736.16194	-400.74956	545.53684	1148.70808	-78.73357	356.49314	1181.19105	-165.64742	532.21483	1136.16819	-358.81915	351.99932	1178.27640	-258.12581	438.65145	1666.69203	-249.59169	494.81671	1620.29184	-71.39870	503.73338	1617.15037	-421.17376	568.41671	1566.48305	-210.32384	573.01888	1565.71537	-267.90455	423.47901	1370.45478	25.32193	307.46370	1275.97970	2.06728	327.36344	1303.11058	71.73224	415.64363	1107.12426	103.62884	448.54691	1017.21428	106.65021	420.80758	1016.09535	132.80337	482.94542	1320.83484	-471.03296	385.35613	1254.75829	-427.91521	409.70938	1246.62819	-500.41973	495.49074	1057.75341	-512.93854	527.28259	984.15160	-500.41110	501.19799	983.47849	-525.12994	463.85349	1053.91888	-113.37873	449.67698	1049.09744	-310.28645	471.83504	1062.63702	-112.90945	462.84851	1056.80761	-297.85207	
75	0.74000000	350.14849	590.43272	-90.17389	331.72407	437.61261	-109.54735	152.73085	115.67582	-142.31735	94.15340	101.15509	-205.94876	279.28538	41.37701	-111.48372	323.42372	60.32665	-161.28665	629.85701	596.13701	-376.09035	743.49051	435.13489	-360.63103	795.82766	122.35990	-350.49048	758.53728	75.98748	-282.71464	962.05164	100.81202	-377.81548	981.32812	158.18463	-329.40153	295.30178	332.21079	-126.39274	269.91726	449.07809	-64.26579	230.03201	344.18438	-74.62664	671.55197	413.23203	-406.94613	708.53397	301.68349	-388.21080	462.47024	863.33772	-40.78641	452.80635	752.55494	-52.53946	386.20324	736.65954	-43.63974	348.29730	878.55675	-55.49247	334.92098	761.03317	-59.61666	597.15727	892.52903	-384.06721	635.14409	763.49494	-380.47086	493.31193	866.79392	-397.49377	534.76126	734.68387	-400.14879	555.97241	1148.15818	-78.16174	367.44099	1180.46339	-166.08970	544.09054	1134.56767	-358.54930	363.35883	1177.42014	-258.53906	450.28403	1665.50853	-253.85389	505.34835	1620.89489	-74.90468	516.20088	1614.25004	-424.62376	579.97698	1565.67346	-212.92633	584.35350	1564.05350	-270.62984	432.46349	1372.05577	23.37496	315.73611	1278.44673	0.49503	335.84103	1305.76601	69.95145	421.30644	1108.77029	103.34234	452.76758	1018.24249	106.93818	425.17546	1017.88870	133.15426	495.46402	1317.57923	-472.29820	397.97412	1251.68170	-428.80794	422.29039	1243.14486	-501.27159	507.47437	1054.02937	-513.07066	539.29753	980.34451	-500.23471	512.90461	979.72063	-524.92582	474.39173	1053.31166	-112.93873	461.11765	1047.83633	-309.89193	482.51390	1061.62142	-112.57669	474.33867	1055.52562	-297.73632	
